HIERARCHY
ROOT Hips
{
	OFFSET 0.000000 0.000000 0.000000 
	CHANNELS 6 Xposition Yposition Zposition Yrotation Zrotation Xrotation 
	JOINT Lumbar
	{
		OFFSET 0.000000 0.000000 0.000000 
		CHANNELS 3 Zrotation Xrotation Yrotation
		JOINT Neck
		{
			OFFSET 0.000000 0.445665 0.000000 
			CHANNELS 3 Zrotation Xrotation Yrotation
			End Site
			{
				OFFSET 0.000000 0.227535 0.000000 
			}
		}
		JOINT RightShoulder
		{
			OFFSET 0.019635 0.377685 0.194865 
			CHANNELS 3 Zrotation Xrotation Yrotation
			JOINT RightElbow
			{
				OFFSET 0.000000 -0.243375 0.000000 
				CHANNELS 2 Zrotation Yrotation
				JOINT RightWrist
				{
					OFFSET 0.000000 -0.264825 0.000000 
					CHANNELS 2 Zrotation Xrotation
					End Site
					{
						OFFSET 0.006600 -0.176220 0.000990 
					}
				}
			}
		}
		JOINT LeftShoulder
		{
			OFFSET 0.019635 0.377685 -0.194865 
			CHANNELS 3 Zrotation Xrotation Yrotation
			JOINT LeftElbow
			{
				OFFSET 0.000000 -0.243375 0.000000 
				CHANNELS 2 Zrotation Yrotation
				JOINT LeftWrist
				{
					OFFSET 0.000000 -0.264825 0.000000 
					CHANNELS 2 Zrotation Xrotation
					End Site
					{
						OFFSET 0.006600 -0.176220 -0.000990 
					}
				}
			}
		}
	}
	JOINT RightHip
	{
		OFFSET 0.052140 -0.069960 0.075570 
		CHANNELS 3 Zrotation Xrotation Yrotation
		JOINT RightKnee
		{
			OFFSET 0.000000 -0.402270 0.000000 
			CHANNELS 1 Zrotation
			JOINT RightAnkle
			{
				OFFSET 0.000000 -0.404085 0.000000 
				CHANNELS 3 Zrotation Xrotation Yrotation
				End Site
				{
					OFFSET 0.204105 -0.089430 0.008415 
				}
			}
		}
	}
	JOINT LeftHip
	{
		OFFSET 0.052140 -0.069960 -0.075570 
		CHANNELS 3 Zrotation Xrotation Yrotation
		JOINT LeftKnee
		{
			OFFSET 0.000000 -0.402270 0.000000 
			CHANNELS 1 Zrotation
			JOINT LeftAnkle
			{
				OFFSET 0.000000 -0.404085 0.000000 
				CHANNELS 3 Zrotation Xrotation Yrotation
				End Site
				{
					OFFSET 0.204105 -0.089430 -0.008415 
				}
			}
		}
	}
}
MOTION
Frames: 14
Frame Time: 0.02
0.0047 0.00124 -0.0017 24.31713 -19.92878 -8.5518 42.82125 1.11615 -5.8191 -13.28408 -0.98655 -1.17657 -28.7657 -11.6204 -5.91499 39.51807 161.64285 22.95751 13.93091 -23.05529 16.466 -6.27732 43.17526 -95.82972 8.97379 -1.56402 35.05787 -4.91042 -12.06076 -21.84882 -8.86084 -3.75493 -4.16804 35.8661 10.15512 5.81496 -27.56703 -7.75035 3.20501 3.85371
0.00838 0.00173 0.00385 24.40771 -19.92188 -8.52466 42.85355 1.08728 -5.7395 -13.31034 -0.73074 -1.17931 -28.17021 -11.78859 -5.1993 39.47637 154.5231 21.16238 12.6624 -22.79623 16.57778 -6.34336 43.59735 -95.84143 8.99459 -1.56201 34.94722 -4.50113 -12.06077 -21.83754 -8.79307 -3.75712 -4.16658 35.8065 10.56188 5.80123 -27.43062 -7.83025 3.1842 3.8478
0.01205 0.00222 0.00939 24.49832 -19.91477 -8.49758 42.88538 1.05842 -5.65994 -13.33672 -0.47448 -1.18209 -27.57522 -11.95616 -4.48545 39.43371 147.42534 19.37277 11.39785 -22.53767 16.68888 -6.40908 44.01789 -95.85359 9.01562 -1.56005 34.8366 -4.09289 -12.06149 -21.82635 -8.72539 -3.75925 -4.16508 35.74721 10.96781 5.78756 -27.29506 -7.90997 3.16339 3.84187
0.01572 0.00272 0.01493 24.58869 -19.90786 -8.47052 42.91752 1.02963 -5.58057 -13.36293 -0.21929 -1.18484 -26.98137 -12.12382 -3.77193 39.392 140.32733 17.58313 10.13322 -22.27931 16.80028 -6.47491 44.43864 -95.86533 9.03639 -1.55804 34.72623 -3.68482 -12.06163 -21.81512 -8.6578 -3.76142 -4.16362 35.6878 11.37339 5.77389 -27.15911 -7.98964 3.14264 3.83597
0.0194 0.00321 0.02047 24.67889 -19.90121 -8.44339 42.95026 1.00085 -5.50118 -13.38896 0.03506 -1.18753 -26.38747 -12.29212 -3.05667 39.35155 133.20786 15.7881 8.86472 -22.02068 16.91247 -6.54105 44.86104 -95.87645 9.05682 -1.55598 34.61596 -3.27579 -12.06076 -21.80379 -8.59017 -3.76366 -4.16218 35.62808 11.77963 5.76009 -27.02223 -8.06944 3.12191 3.83008
0.02306 0.0037 0.026 24.77032 -19.89315 -8.4164 42.98019 0.97185 -5.42126 -13.41606 0.29535 -1.1905 -25.79017 -12.45813 -2.34579 39.30423 126.15646 14.01005 7.60861 -21.76235 17.02126 -6.60589 45.27766 -95.89081 9.07912 -1.55422 34.50461 -2.86926 -12.06478 -21.79288 -8.5224 -3.76558 -4.16057 35.56974 12.18488 5.74668 -26.88948 -8.14899 3.10094 3.82406
0.02676 0.0042 0.03155 24.85929 -19.88795 -8.3892 43.01575 0.94331 -5.34262 -13.44099 0.5432 -1.1929 -25.20054 -12.62859 -1.62704 39.27099 118.97481 12.19959 6.32874 -21.50341 17.1368 -6.67336 45.70538 -95.89861 9.09762 -1.55186 34.39554 -2.45811 -12.05909 -21.78115 -8.45498 -3.76815 -4.15932 35.50854 12.5917 5.73265 -26.7484 -8.229 3.0805 3.81834
0.03042 0.00469 0.03708 24.95031 -19.88011 -8.36212 43.04611 0.91435 -5.26258 -13.4679 0.8029 -1.19584 -24.60352 -12.7949 -0.91525 39.22438 111.91522 10.41941 5.07119 -21.24553 17.24607 -6.73826 46.12303 -95.91248 9.11964 -1.55006 34.28437 -2.0513 -12.06212 -21.77015 -8.38724 -3.77011 -4.15773 35.45023 12.99702 5.7189 -26.6153 -8.3085 3.05952 3.81231
0.03404 0.00517 0.04259 25.04478 -19.869 -8.33546 43.07009 0.88482 -5.18164 -13.49737 1.07592 -1.19938 -23.99826 -12.9564 -0.21277 39.16276 104.99411 8.67392 3.83875 -20.98681 17.34787 -6.80058 46.52783 -95.93377 9.14597 -1.54892 34.17051 -1.64926 -12.07684 -21.76015 -8.31903 -3.77134 -4.15574 35.39444 13.40098 5.70666 -26.49077 -8.38774 3.03807 3.80601
0.03792 0.00572 0.04825 25.12225 -19.87659 -8.30722 43.13066 0.85843 -5.10827 -13.51254 1.26883 -1.19932 -23.44273 -13.14635 0.54088 39.19151 97.24379 6.72178 2.45526 -20.72652 17.49321 -6.87944 47.00493 -95.9124 9.14752 -1.54387 34.07175 -1.21815 -12.02743 -21.74473 -8.25329 -3.77682 -4.15611 35.32114 13.81419 5.68922 -26.31339 -8.46959 3.01987 3.80157
0.04123 0.00611 0.05357 25.23374 -19.84482 -8.28176 43.11418 0.82553 -5.01742 -13.55756 1.63279 -1.20692 -22.78101 -13.2758 1.18801 39.02714 91.26421 5.21027 1.39478 -20.47367 17.54637 -6.92231 47.33052 -95.98097 9.20129 -1.54713 33.94145 -0.84946 -12.11126 -21.74051 -8.18253 -3.7733 -4.15148 35.28671 14.2069 5.68055 -26.24976 -8.5452 2.99448 3.793
0.04301 0.00606 0.05807 25.45396 -19.70366 -8.2685 42.88322 0.77375 -4.8908 -13.68786 2.45385 -1.23519 -21.83536 -13.24125 1.52833 38.34861 90.01366 4.88057 1.19306 -20.20873 17.34699 -6.87476 47.22806 -96.29936 9.40052 -1.57289 33.72143 -0.64472 -12.58058 -21.76924 -8.0962 -3.74501 -4.13293 35.3439 14.55087 5.71411 -26.48096 -8.60962 2.9519 3.77486
0.04421 0.00586 0.0622 25.70495 -19.52349 -8.25713 42.57573 0.71575 -4.74451 -13.84743 3.44829 -1.27119 -20.78203 -13.1454 1.76427 37.47418 90.56392 4.99787 1.32044 -19.95811 17.05538 -6.78979 46.97592 -96.70738 9.65179 -1.60697 33.47068 -0.50407 -13.17942 -21.80883 -8.0052 -3.7077 -4.10939 35.44278 14.87275 5.753 -26.8282 -8.66674 2.90164 3.75226
0.04565 0.00573 0.06642 25.93247 -19.36178 -8.24196 42.30489 0.66111 -4.59907 -13.99152 4.37228 -1.30394 -19.77267 -13.07655 2.05763 36.67787 90.37673 4.92904 1.31568 -19.72115 16.80518 -6.7161 46.80006 -97.07257 9.87785 -1.63752 33.2356 -0.33879 -13.70681 -21.84192 -7.91748 -3.67452 -4.08823 35.53258 15.2 5.77779 -27.13547 -8.72322 2.85321 3.73051
